<svg width="128" height="128" viewBox="0 0 128 128" fill="none" xmlns="http://www.w3.org/2000/svg">
<g clip-path="url(#clip0_255_451)">
<circle cx="64" cy="64" r="64" fill="#16161A"/>
<path d="M76.5001 67.75C80.888 68.6429 85.4468 68.0984 89.5008 66.197C93.5549 64.2956 96.8885 61.1387 99.0075 57.194C101.126 53.2493 101.918 48.7269 101.265 44.297C100.612 39.867 98.5493 35.7654 95.3822 32.5999C92.2151 29.4345 88.1124 27.3737 83.6821 26.7229C79.2519 26.0722 74.7298 26.8662 70.7863 28.9872C66.8427 31.1083 63.6874 34.4435 61.7881 38.4985C59.8888 42.5535 59.3466 47.1126 60.2418 51.5M76.5001 67.75L60.2418 51.5042L28.9376 87.2708C27.3739 88.8328 26.4948 90.9521 26.4937 93.1622C26.4931 94.2566 26.7081 95.3404 27.1263 96.3517C27.5446 97.363 28.1579 98.282 28.9314 99.0563C29.7048 99.8305 30.6232 100.445 31.634 100.864C32.6449 101.284 33.7284 101.5 34.8228 101.5C37.033 101.501 39.1531 100.625 40.7168 99.0625L76.5001 67.75Z" stroke="url(#paint0_linear_255_451)" stroke-width="8.33333" stroke-linecap="round" stroke-linejoin="round"/>
</g>
<defs>
<linearGradient id="paint0_linear_255_451" x1="26.4937" y1="64.001" x2="101.488" y2="64.001" gradientUnits="userSpaceOnUse">
<stop stop-color="#4AC3FF"/>
<stop offset="0.302885" stop-color="#2F4AFF"/>
<stop offset="0.519231" stop-color="#5733FD"/>
<stop offset="0.759615" stop-color="#8738C9"/>
<stop offset="1" stop-color="#ED36B6"/>
</linearGradient>
<clipPath id="clip0_255_451">
<rect width="128" height="128" fill="white"/>
</clipPath>
</defs>
</svg>
