<svg width="95" height="95" viewBox="0 0 95 95" fill="none" xmlns="http://www.w3.org/2000/svg">
<path d="M53.9893 1.90909C57.0179 0.280155 60.4911 -0.329921 63.8936 0.16983C67.2959 0.669588 70.4466 2.25256 72.8789 4.6835C75.3112 7.11455 76.8959 10.2648 77.3975 13.6669C77.899 17.069 77.2905 20.5427 75.6631 23.5722C74.0357 26.6015 71.4757 29.026 68.3623 30.4862C65.6624 31.7525 62.6711 32.2337 59.7266 31.8925L48.3955 41.8075L88.1523 94.6659H60.8633L35.3633 56.3935L25.6816 68.2118V94.6659H6V1.5751H25.6816V40.7558C25.9213 40.4127 26.1875 40.086 26.4814 39.7812L45.6758 17.8495C45.3332 14.9054 45.8143 11.9141 47.0791 9.21377C48.5377 6.09962 50.9607 3.53801 53.9893 1.90909ZM30.4756 43.3153C30.4365 43.36 30.3965 43.4042 30.3545 43.4462C29.8542 43.946 29.5727 44.6238 29.5723 45.331C29.5721 45.6811 29.6406 46.0279 29.7744 46.3515C29.9082 46.6749 30.1043 46.969 30.3516 47.2167C30.599 47.4644 30.8934 47.6616 31.2168 47.7958C31.5403 47.93 31.8871 47.9987 32.2373 47.9989C32.9444 47.9993 33.6227 47.7192 34.123 47.2196L34.252 47.0985L55.0068 28.9355L48.6338 22.5683L30.4756 43.3153ZM63.1182 5.44717C60.8499 5.11405 58.5347 5.52043 56.5156 6.60635C54.4967 7.69228 52.8806 9.39948 51.9082 11.4755C51.043 13.3227 50.7294 15.3745 50.9932 17.3866L60.1895 26.5761C62.201 26.8384 64.2515 26.523 66.0977 25.6571C68.1732 24.6836 69.88 23.0673 70.9648 21.0478C72.0497 19.0281 72.4554 16.7123 72.1211 14.4442C71.7867 12.1763 70.7298 10.0765 69.1084 8.45596C67.4869 6.83535 65.3864 5.78033 63.1182 5.44717Z" fill="url(#paint0_linear_255_474)"/>
<defs>
<linearGradient id="paint0_linear_255_474" x1="6" y1="47.333" x2="88.1523" y2="47.333" gradientUnits="userSpaceOnUse">
<stop stop-color="#4AC3FF"/>
<stop offset="0.302885" stop-color="#2F4AFF"/>
<stop offset="0.519231" stop-color="#5733FD"/>
<stop offset="0.759615" stop-color="#8738C9"/>
<stop offset="1" stop-color="#ED36B6"/>
</linearGradient>
</defs>
</svg>
