<svg width="128" height="128" viewBox="0 0 128 128" fill="none" xmlns="http://www.w3.org/2000/svg">
<g clip-path="url(#clip0_255_445)">
<path d="M80 68.8C85.6164 69.943 91.4517 69.2459 96.6409 66.8122C101.83 64.3784 106.097 60.3375 108.809 55.2883C111.522 50.2391 112.535 44.4504 111.699 38.7801C110.863 33.1098 108.223 27.8597 104.169 23.8079C100.115 19.7561 94.8637 17.1183 89.1929 16.2853C83.5222 15.4524 77.734 16.4687 72.6862 19.1837C67.6384 21.8986 63.5997 26.1676 61.1686 31.3581C58.7375 36.5485 58.0435 42.3841 59.1893 48M80 68.8L59.1893 48.0053L19.12 93.7867C17.1185 95.786 15.9932 98.4986 15.9917 101.328C15.991 102.728 16.2661 104.116 16.8015 105.41C17.3369 106.705 18.122 107.881 19.112 108.872C20.102 109.863 21.2775 110.649 22.5714 111.186C23.8652 111.723 25.2522 112 26.653 112C29.482 112.002 32.1958 110.879 34.1973 108.88L80 68.8Z" stroke="url(#paint0_linear_255_445)" stroke-width="10.6667" stroke-linecap="round" stroke-linejoin="round"/>
</g>
<defs>
<linearGradient id="paint0_linear_255_445" x1="15.9917" y1="64.0013" x2="111.984" y2="64.0013" gradientUnits="userSpaceOnUse">
<stop stop-color="#4AC3FF"/>
<stop offset="0.302885" stop-color="#2F4AFF"/>
<stop offset="0.519231" stop-color="#5733FD"/>
<stop offset="0.759615" stop-color="#8738C9"/>
<stop offset="1" stop-color="#ED36B6"/>
</linearGradient>
<clipPath id="clip0_255_445">
<rect width="128" height="128" fill="white"/>
</clipPath>
</defs>
</svg>
